<?xml version="1.0" encoding="iso-8859-1"?>
<!-- Generator: Adobe Illustrator 19.0.0, SVG Export Plug-In . SVG Version: 6.00 Build 0)  -->
<svg version="1.1" id="Capa_1" xmlns="http://www.w3.org/2000/svg" xmlns:xlink="http://www.w3.org/1999/xlink" x="0px" y="0px"
	 viewBox="0 0 512 512" style="enable-background:new 0 0 512 512;" xml:space="preserve">
<path style="fill:#FFDC6C;" d="M415.345,402.472l-202.61-284.96c-6.43-9.043-9.885-19.864-9.885-30.961v-8.907L144.181,96.38v0.603
	c0,19.434-5.702,38.339-15.822,54.93c-7.889,12.932-12.464,28.106-12.547,44.344c-0.141,27.875,13.224,52.937,33.952,68.839
	l0.003-0.003l158.977,103.563l-19.266-54.495l117.887,95.794C412.353,414.011,419.071,407.711,415.345,402.472z"/>
<path style="fill:#FFAF5F;" d="M45.033,316.827h39.53c17.912,0,35.09,7.115,47.755,19.781l11.014,11.014
	c31.561,30.607,64.543,46.318,81.395,52.959c31.909,12.575,62.573,16.778,89.317,16.778H463.34c4.308,0,7.801-3.493,7.801-7.801
	v-24.073c0-4.333-3.524-7.837-7.857-7.801c-42.429,0.35-180.326,2.265-223.69-14.825c-14.036-5.531-41.536-18.647-68.035-44.345
	l-6.989-6.989c-18.679-18.679-44.012-33.692-70.428-33.692H45.033c-2.305,0-4.174,1.869-4.174,4.174v30.645
	C40.859,314.959,42.728,316.827,45.033,316.827z"/>
<path style="fill:#F48F56;" d="M45.033,291.567h49.108c26.416,0,51.749,15.013,70.428,33.692l6.99,6.989
	c26.499,25.698,54,38.814,68.035,44.345c43.364,17.09,181.261,15.175,223.69,14.825c4.333-0.036,7.857,3.467,7.857,7.8l0.001-13.732
	c0-4.333-3.524-7.837-7.857-7.801c-42.429,0.35-180.326,2.265-223.69-14.825c-14.036-5.531-41.536-18.647-68.035-44.345l-6.99-6.989
	c-18.678-18.679-44.012-33.692-70.428-33.692H45.033c-2.305,0-4.174,1.869-4.174,4.174v13.733
	C40.859,293.436,42.728,291.567,45.033,291.567z"/>
<path style="fill:#FFDC6C;" d="M106.881,51.94c0-28.611,20.527-51.94,49.138-51.94s51.805,23.194,51.805,51.805v5.578
	c0,24.175-19.598,43.773-43.773,43.773S122.33,79.152,122.33,54.977L106.881,51.94z"/>
<path style="fill:#FFAF5F;" d="M158.854,122.588c13.632,0,24.683-11.051,24.683-24.683V83.813L144.18,96.382v0.603
	c0,8.694-1.149,17.28-3.317,25.603H158.854z"/>
<path style="fill:#FFFFFF;" d="M106.881,51.735c0-24.308,17.439-44.127,41.747-44.127s44.013,19.705,44.013,44.013v4.739
	c0,49.456-42.875,42.531-42.875,42.531s-7.17-7.351-12.365-10.773c-10.656-7.021-15.29-20.895-15.29-34.703L106.881,51.735z"/>
<path style="fill:#464655;" d="M104.214,51.805c0,6.727,1.282,13.154,3.615,19.051c0.358,0.905,1.619,0.956,2.048,0.083
	c0.961-1.953,2.219-4.142,3.87-6.41c2.25-3.09,4.581-5.438,6.532-7.145c0.003,3.786,0.488,14.876,8.316,25.664
	c5.231,7.209,12.608,12.759,21.192,15.718c2.915-16.594,5.244-35.339,6.232-55.93c0.736-15.342,0.631-29.678,0-42.836
	C127.408,0,104.214,23.194,104.214,51.805z"/>
<path style="fill:#35363F;" d="M149.787,98.766c2.915-16.594,5.244-35.339,6.232-55.93c-5.201,0-10.222,0.766-14.958,2.192
	c-9.336,2.811-17.782,10.066-20.782,12.355c0.003,3.786,0.488,14.876,8.316,25.664C133.826,90.256,141.203,95.807,149.787,98.766z"
	/>
<circle style="fill:#464655;" cx="178.92" cy="33.606" r="8.123"/>
<path style="fill:#1AA5E2;" d="M398.424,498.597l-51.261-137.558l-73.334-59.591l106.567,205.154
	C386.109,517.599,402.752,510.209,398.424,498.597z"/>
<path style="fill:#26C4C4;" d="M415.346,402.472c3.725,5.239-2.993,11.539-7.982,7.485l-225.23-183.022l-4.984-4.049
	c-11.596-9.102-19.045-23.247-19.045-39.132c0-27.46,22.261-49.72,49.72-49.72c6.865,0,13.405,1.391,19.353,3.907"/>
<path style="fill:#FFDC6C;" d="M222.297,364.079c-4.376,0-7.923-3.547-7.923-7.923v-55.963c0-4.376,3.547-7.923,7.923-7.923
	s7.923,3.547,7.923,7.923v55.963C230.22,360.531,226.673,364.079,222.297,364.079z"/>
<path style="fill:#464655;" d="M198.45,388.261c-4.376,0-7.923-3.547-7.923-7.923c0-17.703,14.403-32.105,32.106-32.105
	c4.376,0,7.923,3.547,7.923,7.923s-3.547,7.923-7.923,7.923c-8.966,0-16.26,7.294-16.26,16.259
	C206.373,384.714,202.827,388.261,198.45,388.261z"/>
<path style="fill:#FFDC6C;" d="M186.164,339.896c-4.376,0-7.923-3.547-7.923-7.923v-54.139c0-4.376,3.547-7.923,7.923-7.923
	s7.923,3.547,7.923,7.923v54.139C194.087,336.349,190.54,339.896,186.164,339.896z"/>
<path style="fill:#464655;" d="M162.318,364.079c-4.376,0-7.923-3.547-7.923-7.923c0-17.703,14.402-32.106,32.105-32.106
	c4.376,0,7.923,3.547,7.923,7.923s-3.547,7.923-7.923,7.923c-8.965,0-16.259,7.294-16.259,16.26
	C170.241,360.532,166.695,364.079,162.318,364.079z"/>
<g>
</g>
<g>
</g>
<g>
</g>
<g>
</g>
<g>
</g>
<g>
</g>
<g>
</g>
<g>
</g>
<g>
</g>
<g>
</g>
<g>
</g>
<g>
</g>
<g>
</g>
<g>
</g>
<g>
</g>
</svg>
