<svg id="Capa_1" enable-background="new 0 0 512 512" height="512" viewBox="0 0 512 512" width="512" xmlns="http://www.w3.org/2000/svg"><g><g><g><path d="m256 130.741s-159.506 101.504-197.991 125.995v247.764h395.983v-247.765c-38.487-24.491-197.992-125.994-197.992-125.994z" fill="#f4ddb1"/></g><g><path d="m336.813 504.5v-105.057c0-44.632-36.181-80.813-80.813-80.813s-80.813 36.181-80.813 80.813v105.057z" fill="#738b95"/></g><g><path d="m425.707 238.736v265.764h28.284v-247.765c-6.46-4.11-16.332-10.393-28.284-17.999z" fill="#efcb84"/></g><g><path d="m256 130.741 222.235 141.422v-61.62l-222.235-140.412-222.235 140.412v61.62z" fill="#c6865c"/></g><g><path d="m453.991 195.226v29.255c0 4.783-5.28 7.681-9.315 5.113l-188.676-120.067-222.235 141.423v21.213l222.235-141.422 222.235 141.422v-61.62s-19.531-12.34-24.244-15.317z" fill="#b16e3d"/></g></g><g><g><path d="m341.204 25.286c-23.493-23.492-61.43-23.706-85.204-.671-23.774-23.035-61.711-22.821-85.204.671-23.724 23.724-23.724 62.187 0 85.911l85.204 85.204 85.204-85.204c23.723-23.723 23.723-62.187 0-85.911z" fill="#dd636e"/></g><g><path d="m341.204 25.286c-11.314-11.315-25.98-17.213-40.799-17.731 1.664 7.365 2.571 15.017 2.571 22.885 0 57.141-46.322 103.462-103.462 103.462-2.088 0-4.157-.08-6.215-.203l62.701 62.702 85.204-85.204c23.723-23.723 23.723-62.187 0-85.911z" fill="#da4a54"/></g></g><g><ellipse cx="256" cy="439.85" fill="#f6e781" rx="33.335" ry="26.264"/></g><g><ellipse cx="256" cy="388.077" fill="#f6e781" rx="17.173" ry="24.244"/></g><g><ellipse cx="288.325" cy="401.209" fill="#f6e781" rx="20.203" ry="16.163" transform="matrix(.453 -.891 .891 .453 -199.98 476.435)"/></g><g><ellipse cx="223.675" cy="401.209" fill="#f6e781" rx="16.163" ry="20.203" transform="matrix(.891 -.453 .453 .891 -157.519 144.907)"/></g><g><path d="m482.245 204.2-54.26-34.28c-3.501-2.211-8.135-1.169-10.347 2.335-2.212 3.502-1.167 8.134 2.335 10.347l50.766 32.072v43.824l-162.694-103.534 26.399-26.399 55.747 35.22c1.243.785 2.629 1.16 3.999 1.16 2.487 0 4.921-1.236 6.348-3.495 2.212-3.502 1.167-8.134-2.335-10.347l-52.885-33.412 1.19-1.19c26.609-26.61 26.609-69.908 0-96.517-12.755-12.755-29.711-19.852-47.746-19.98-.168-.002-.335-.002-.503-.002-15.496 0-30.252 5.152-42.259 14.653-12.137-9.605-27.067-14.803-42.762-14.652-18.035.129-34.991 7.225-47.745 19.979-26.61 26.61-26.61 69.908 0 96.518l1.19 1.19-52.886 33.413c-3.502 2.213-4.547 6.845-2.334 10.347 1.427 2.259 3.86 3.495 6.348 3.495 1.369 0 2.755-.375 3.999-1.16l55.747-35.221 26.399 26.399-162.695 103.535v-43.824l50.765-32.072c3.502-2.213 4.547-6.845 2.334-10.347-2.211-3.502-6.843-4.545-10.346-2.335l-54.259 34.28c-2.175 1.374-3.494 3.768-3.494 6.341v61.62c0 2.737 1.491 5.257 3.891 6.574 1.126.618 2.368.926 3.608.926 1.402 0 2.802-.393 4.027-1.173l12.721-8.095v234.107c0 4.143 3.358 7.5 7.5 7.5h395.983c4.143 0 7.5-3.357 7.5-7.5v-75.786c0-4.143-3.357-7.5-7.5-7.5s-7.5 3.357-7.5 7.5v2.626h-102.178v-31.896c0-4.664-.366-9.243-1.066-13.714h103.245v7.979c0 4.143 3.357 7.5 7.5 7.5s7.5-3.357 7.5-7.5v-123.317l12.722 8.096c1.226.78 2.624 1.173 4.026 1.173 1.24 0 2.482-.308 3.609-.926 2.399-1.317 3.891-3.837 3.891-6.574v-61.62c-.001-2.573-1.32-4.967-3.495-6.341zm-152.932 292.8h-146.626v-97.556c0-40.425 32.888-73.313 73.313-73.313s73.313 32.889 73.313 73.313zm-174.32-293.099h202.015l71.67 45.609h-345.356zm-89.484 181.829h103.245c-.7 4.47-1.066 9.05-1.066 13.714v31.896h-102.179zm106.974-15h-106.974v-45.609h142.838c-16.559 10.653-29.34 26.686-35.864 45.609zm-106.974-60.609v-45.61h380.983v45.61zm267.928-121.22h-59.33l23.073-23.073zm-157.338-158.311c10.323-10.323 23.98-15.497 37.647-15.497 13.38 0 26.77 4.962 37.035 14.908 2.908 2.817 7.528 2.819 10.437 0 20.752-20.106 54.254-19.84 74.681.588v.001c20.762 20.761 20.762 54.543 0 75.304l-79.899 79.901-79.901-79.901c-20.761-20.761-20.761-54.543 0-75.304zm61.794 158.311h-59.329l36.257-23.073zm-172.384 257.439h102.178v50.66h-102.178zm380.982 0v50.66h-102.178v-50.66zm-106.974-75.61c-6.524-18.923-19.306-34.956-35.864-45.609h142.838v45.609z"/><path d="m300.878 376.514c-5.835-2.966-12.894-2.983-19.365-.049-.741.336-1.468.708-2.179 1.112-3.3-12.488-12.373-21.243-23.334-21.243s-20.034 8.756-23.334 21.243c-.711-.404-1.438-.775-2.179-1.112-6.473-2.936-13.531-2.918-19.366.049-11.63 5.912-15.462 21.8-8.54 35.418 3.617 7.116 9.467 12.213 15.886 14.626-2.122 4.082-3.303 8.575-3.303 13.292 0 18.618 18.319 33.765 40.835 33.765s40.835-15.146 40.835-33.765c0-4.701-1.171-9.179-3.279-13.249.53-.199 1.059-.41 1.582-.647 5.996-2.719 11.067-7.698 14.281-14.021 6.922-13.619 3.09-29.508-8.54-35.419zm-44.878-5.181c4.566 0 9.673 7.161 9.673 16.744s-5.106 16.744-9.673 16.744c-4.566 0-9.673-7.161-9.673-16.744s5.107-16.744 9.673-16.744zm-38.082 18.552c.892-.453 1.815-.621 2.693-.621 1.481 0 2.832.478 3.68.862 2.863 1.299 5.453 3.907 7.105 7.158 1.652 3.25 2.234 6.88 1.595 9.959-.301 1.452-1.165 4.071-3.561 5.289v.001c-4.187 2.129-10.358-1.26-13.478-7.398-3.12-6.139-2.219-13.122 1.966-15.25zm38.082 68.729c-14.004 0-25.835-8.593-25.835-18.765s11.831-18.765 25.835-18.765 25.835 8.593 25.835 18.765-11.831 18.765-25.835 18.765zm40.048-53.479c-1.652 3.25-4.242 5.859-7.105 7.157-1.353.613-3.978 1.458-6.373.241 0 0 0-.001-.001-.001-2.396-1.218-3.26-3.837-3.561-5.289-.639-3.079-.058-6.709 1.595-9.959 1.652-3.251 4.242-5.859 7.105-7.158.849-.385 2.199-.861 3.68-.861.878 0 1.802.167 2.693.62 4.185 2.128 5.086 9.111 1.967 15.25z"/></g></g></svg>