<svg id="Capa_1" enable-background="new 0 0 512 512" height="100" viewBox="0 0 512 512" width="100" xmlns="http://www.w3.org/2000/svg"><g><g><path d="m256 126.959s-164.32 104.567-203.967 129.798v255.243h407.935v-255.243c-39.648-25.23-203.968-129.798-203.968-129.798z" fill="#f4ddb1"/><path d="m430.829 238.214v273.786h29.138v-255.243c-6.654-4.235-16.825-10.707-29.138-18.543z" fill="#efcb84"/><path d="m256 126.959 213.11 135.616c6.858 4.364 15.833-.562 15.833-8.691v-39.036c0-3.534-1.812-6.821-4.799-8.709l-224.144-141.619-224.144 141.618c-2.988 1.888-4.799 5.175-4.799 8.709v39.036c0 8.129 8.974 13.056 15.833 8.691z" fill="#c6865c"/><path d="m459.967 193.391v30.138c0 4.927-5.439 7.913-9.596 5.268l-194.371-123.691-228.943 145.691v3.087c0 8.129 8.974 13.056 15.833 8.691l213.11-135.616 213.11 135.616c6.858 4.364 15.833-.562 15.833-8.691v-39.036c0-3.534-1.811-6.821-4.799-8.709-6.268-3.96-16.836-10.638-20.177-12.748z" fill="#b16e3d"/></g><path d="m52.033 256.757v8.01h407.935v-8.01c-3.156-2.009-7.105-4.522-11.696-7.443h-384.543c-4.591 2.921-8.54 5.434-11.696 7.443z" fill="#efcb84"/><path d="m52.033 311.754v15.452h407.935v-15.452z" fill="#efcb84"/><path d="m137.564 202.328h236.873c-8.063-5.131-16.219-10.321-24.283-15.453h-188.308c-8.063 5.132-16.22 10.322-24.282 15.453z" fill="#efcb84"/><g><path d="m190.779 381.919c0 4.265-3.461 7.726-7.726 7.726h-131.019v-15.453h131.018c4.266.001 7.727 3.462 7.727 7.727z" fill="#efcb84"/></g><g><path d="m190.779 444.358c0 4.265-3.461 7.726-7.726 7.726h-131.019v-15.453h131.018c4.266.001 7.727 3.462 7.727 7.727z" fill="#efcb84"/></g><g><path d="m459.966 374.193v15.453h-131.019c-4.265 0-7.726-3.461-7.726-7.726s3.461-7.726 7.726-7.726h131.019z" fill="#efcb84"/></g><g><path d="m459.966 436.632v15.453h-131.019c-4.265 0-7.726-3.461-7.726-7.726s3.461-7.726 7.726-7.726h131.019z" fill="#efcb84"/></g><g><path d="m343.776 18.322c-24.202-24.202-63.284-24.422-87.776-.692-24.492-23.73-63.574-23.51-87.776.692-24.44 24.44-24.44 64.064 0 88.504l80.491 80.491c4.023 4.023 10.546 4.023 14.569 0l80.491-80.491c24.44-24.44 24.44-64.065.001-88.504z" fill="#dd636e"/><path d="m343.776 18.322c-11.656-11.656-26.764-17.732-42.031-18.267 1.714 7.588 2.649 15.47 2.649 23.576 0 58.865-47.72 106.585-106.585 106.585-2.151 0-4.283-.083-6.403-.209l57.309 57.309c4.023 4.023 10.546 4.023 14.569 0l80.491-80.491c24.44-24.439 24.44-64.064.001-88.503z" fill="#da4a54"/></g><path d="m339.252 512v-108.228c0-45.979-37.273-83.252-83.252-83.252s-83.252 37.273-83.252 83.252v108.228z" fill="#738b95"/><g fill="#f6e781"><ellipse cx="256" cy="445.398" rx="34.341" ry="27.057"/><ellipse cx="256" cy="393.553" rx="17.691" ry="24.976"/><ellipse cx="289.301" cy="407.082" rx="20.813" ry="16.65" transform="matrix(.453 -.891 .891 .453 -204.681 480.516)"/><ellipse cx="222.699" cy="407.082" rx="16.65" ry="20.813" transform="matrix(.891 -.453 .453 .891 -160.286 145.103)"/></g></g></svg>